<svg width="140" height="42" viewBox="0 0 140 42" fill="none" xmlns="http://www.w3.org/2000/svg">
<path d="M33.8459 5.84123C33.8162 5.74751 33.7764 5.66048 33.7133 5.56676C33.5606 5.31558 33.2951 5.12814 32.9832 5.05637L32.9235 5.33084C33.1725 5.38601 33.3583 5.53489 33.4809 5.72421C33.607 5.91165 33.6535 6.16284 33.607 6.39688L33.8393 6.44534L33.8691 6.46034L34.118 6.5072C34.1345 6.43704 34.1579 6.36661 34.1977 6.30315V6.29645V6.28815C34.2672 6.14757 34.3769 6.03698 34.5062 5.95022C34.6952 5.82463 34.9341 5.77776 35.1764 5.83293L35.2295 5.55176C34.921 5.48803 34.599 5.55176 34.3536 5.70734C34.2739 5.77108 34.1974 5.83293 34.1279 5.89639C34.1345 5.80106 34.1512 5.70734 34.1876 5.61362C34.2739 5.39431 34.4297 5.22213 34.6622 5.11984L34.546 4.86036C34.2508 4.98595 34.0416 5.22855 33.9253 5.50303C33.8858 5.61362 33.8561 5.72421 33.8459 5.84123Z" fill="#BEC230"/>
<path d="M30.5737 6.35012C30.5206 6.27139 30.4511 6.19454 30.3714 6.13081C30.1558 5.93507 29.8437 5.82447 29.5321 5.84965L29.5485 6.13081C29.7975 6.11582 30.0232 6.19454 30.1922 6.35012C30.3648 6.49231 30.4811 6.71163 30.4975 6.95423L30.7466 6.93067L31.0252 6.91568C31.0252 6.83695 31.0252 6.75849 31.0417 6.68806V6.67976C31.0714 6.52231 31.1346 6.382 31.244 6.2647C31.3833 6.09225 31.5992 5.97336 31.8413 5.95836L31.8179 5.66889C31.4927 5.69246 31.2206 5.84965 31.0248 6.08395C30.9615 6.15411 30.902 6.24141 30.8623 6.32656C30.8389 6.23284 30.8224 6.13081 30.8389 6.03709C30.8554 5.80118 30.9615 5.58187 31.1508 5.42629L30.9618 5.20537C30.7128 5.41799 30.5835 5.70746 30.5604 6.00549C30.5437 6.12252 30.5506 6.24141 30.5737 6.35012Z" fill="#BEC230"/>
<mask id="mask0_15_2" style="mask-type:luminance" maskUnits="userSpaceOnUse" x="29" y="6" width="4" height="6">
<path d="M30.9167 6.81378C31.524 6.88393 31.9753 7.18197 32.2604 7.71405C31.9583 7.82438 31.5405 7.9031 30.9796 7.94997C31.4143 7.99682 31.8656 7.95827 32.3169 7.82438C32.4629 8.12214 32.566 8.49891 32.6121 8.93727C32.3169 9.04762 31.8954 9.12635 31.3446 9.15658C31.7661 9.21175 32.1909 9.17321 32.6352 9.06286C32.665 9.40075 32.675 9.78427 32.6585 10.2076C32.3634 10.3179 31.9418 10.3951 31.4008 10.427C31.8022 10.4738 32.2238 10.4435 32.6517 10.3332C32.6352 10.6463 32.6053 10.9908 32.5556 11.3524C32.1773 11.133 31.7428 11.0145 31.2915 11.0075C30.9628 10.9991 30.6544 11.0543 30.3592 11.148C30.296 10.2159 29.8915 8.53053 29.5031 7.83937L29.45 7.73735C29.7521 7.11851 30.2432 6.79048 30.9167 6.81378Z" fill="white"/>
</mask>
<g mask="url(#mask0_15_2)">
<path d="M32.6761 6.7905H29.4508V11.3529H32.6761V6.7905Z" fill="url(#paint0_linear_15_2)"/>
</g>
<mask id="mask1_15_2" style="mask-type:luminance" maskUnits="userSpaceOnUse" x="32" y="6" width="4" height="7">
<path d="M34.0087 6.36686C34.679 6.63303 35.0506 7.16511 35.1302 7.95854C34.8249 7.95854 34.43 7.90337 33.9389 7.78609C34.3039 7.94997 34.7087 8.0437 35.1436 8.07556C35.1599 8.41185 35.1302 8.79694 35.0373 9.22698C34.7422 9.22031 34.3768 9.16514 33.9325 9.05454C34.2675 9.212 34.6328 9.2988 35.0208 9.3459C34.9444 9.68223 34.8351 10.0504 34.6957 10.4588C34.4069 10.4438 34.0422 10.3887 33.5909 10.2781C33.9328 10.4269 34.2811 10.5207 34.6628 10.5609C34.5632 10.842 34.4473 11.1333 34.3208 11.4461C34.0422 11.4225 33.7002 11.3673 33.2957 11.2736C33.6076 11.4075 33.9328 11.5012 34.2746 11.5398C34.2115 11.6887 34.142 11.8376 34.0724 11.995C33.8569 12.0033 33.6376 12.0569 33.4353 12.1289C33.3127 11.9632 33.173 11.8076 33.0172 11.6654L33.0469 11.4142C33.1863 10.3179 33.2659 8.9539 32.8909 7.90311C32.7515 7.51162 32.5489 7.19028 32.3002 6.9308C32.7512 6.36686 33.3352 6.16255 34.0087 6.36686Z" fill="white"/>
</mask>
<g mask="url(#mask1_15_2)">
<path d="M35.1589 6.1628H32.2986V12.1292H35.1589V6.1628Z" fill="url(#paint1_linear_15_2)"/>
</g>
<path fill-rule="evenodd" clip-rule="evenodd" d="M25.5464 5.89633C24.8398 5.44111 23.9205 5.22849 23.144 5.30722C24.0931 4.70472 24.8992 4.60939 25.5698 5.01775C25.1185 4.51567 24.4119 4.15577 23.4461 3.92816C24.7137 3.81087 25.4604 3.90459 25.6693 4.21762C25.5398 3.84113 25.2282 3.4175 24.7469 2.94728C25.5862 2.88542 26.0975 3.21506 26.3163 3.93646C26.4954 3.19846 26.9998 2.84526 27.8394 2.86856C27.3815 3.37064 27.0929 3.80257 26.9833 4.17907C27.1793 3.86443 27.9157 3.73214 29.1898 3.779C28.2342 4.05348 27.544 4.45354 27.1224 4.98561C27.7595 4.532 28.5758 4.59413 29.5646 5.14307C28.7882 5.1029 27.8923 5.37068 27.2318 5.83261C26.7043 5.63713 25.8183 5.76244 25.5464 5.89633Z" fill="#283B49"/>
<path fill-rule="evenodd" clip-rule="evenodd" d="M24.0705 7.83304L24.963 9.31412L25.4143 9.3058L26.2239 7.79287L25.444 6.50754C24.9102 6.76674 24.4355 7.22866 24.0705 7.83304ZM25.8191 6.35838L26.4397 7.39254L27.0171 6.31982C26.8212 6.27135 26.6255 6.25609 26.4166 6.25609C26.2074 6.26465 26.0049 6.30322 25.8191 6.35838ZM27.3887 6.44541L26.672 7.77761L27.8002 9.62689L28.8355 7.69888C28.4306 7.11834 27.9396 6.67971 27.3887 6.44541ZM27.4054 9.7225L26.4631 8.17767L25.8592 9.30555L26.5196 9.29888C26.8746 9.29913 27.1931 9.47133 27.4054 9.7225ZM27.5913 10.0203L27.5581 9.98842C27.5746 10.0034 27.5746 10.0203 27.5846 10.0353L27.5913 10.0203ZM29.0677 8.09064L28.0426 10.0203L29.1907 11.9164C29.3929 11.7123 29.6186 11.5399 29.8675 11.3757C29.8673 10.5845 29.4327 8.73328 29.0677 8.09064ZM28.7726 11.9801L27.8235 10.412L27.6611 10.7098V11.0394C28.0791 11.195 28.4076 11.5565 28.5472 11.9951L28.7726 11.9801ZM24.5449 9.36098L23.8614 8.2331C23.6357 8.67176 23.4699 9.17354 23.3636 9.7225C23.4101 9.85476 23.4565 9.98867 23.503 10.1209C23.5795 10.3419 23.6591 10.5612 23.7353 10.7802V10.4589C23.7353 9.94181 24.0772 9.50155 24.5449 9.36098Z" fill="#FFCC00"/>
<path d="M19.1364 24.9387L13.678 30.1202C13.6183 30.1839 13.5851 30.2458 13.5719 30.3242C13.5554 30.3944 13.5554 30.4817 13.5851 30.5602C13.6183 30.6373 13.6714 30.7008 13.7245 30.7326C13.7975 30.7795 13.8673 30.7945 13.9602 30.7945L36.0164 30.4581L35.5187 32.1503L13.9737 32.4881C13.5491 32.4881 13.1442 32.3709 12.8089 32.1433C12.467 31.9156 12.2016 31.5943 12.0391 31.186C11.8767 30.7859 11.8467 30.3625 11.9297 29.9644C12.0161 29.5643 12.2186 29.1945 12.5371 28.8965L17.9922 23.7066L19.1364 24.9387Z" fill="#0FA687"/>
<path fill-rule="evenodd" clip-rule="evenodd" d="M36.4909 5.87988C36.5905 5.85631 36.6834 5.84989 36.7861 5.84989C36.7529 5.33093 37.1047 4.86072 37.6157 4.75199C37.974 4.67327 38.3324 4.79886 38.5814 5.04977C38.7969 4.89231 39.0624 4.78199 39.3411 4.72013C40.5224 4.47752 41.6904 5.24551 41.9359 6.43713C41.9691 6.60101 41.9859 6.77346 41.9859 6.93921C41.8764 6.93091 41.7836 6.93091 41.6739 6.93921C41.455 6.95421 41.2391 6.99277 41.0267 7.0565C40.7316 6.8139 40.353 6.68831 39.965 6.71187C39.3645 6.74373 38.8532 7.11863 38.6275 7.66088C37.4994 7.7546 36.6367 8.75049 36.6998 9.8952C36.7065 10.004 36.7163 10.1145 36.7463 10.2233C36.1389 10.5997 35.7575 11.2893 35.7973 12.0276C35.8137 12.2233 35.8536 12.4191 35.9234 12.5915C35.8902 12.6301 35.8602 12.6702 35.8438 12.7018C35.5417 12.3722 35.1434 12.1363 34.6957 12.0426C34.6856 11.9957 34.6792 11.9638 34.6723 11.917C34.6622 11.9086 34.6622 11.902 34.6622 11.8851C35.1599 10.7805 35.6577 9.39318 35.6412 8.21652C35.6346 7.70774 35.535 7.25252 35.3161 6.86745C35.5188 6.38196 35.9369 5.9902 36.4909 5.87988ZM38.711 8.1544C38.8139 8.1544 38.9132 8.1544 39.0061 8.16939C39.056 7.65231 39.4675 7.24394 39.9949 7.21369C40.3666 7.19013 40.6952 7.36927 40.8975 7.65231C41.1465 7.52672 41.4183 7.46326 41.7039 7.44826C44.2688 7.30768 44.0829 9.85509 42.8157 11.055C42.2019 11.6358 41.6179 12.4191 41.0039 13.1555C39.4807 15.0064 38.5118 16.8256 36.1562 18.2133C36.3123 17.5856 36.4813 16.9815 36.6605 16.3857C36.3123 16.2065 36.0632 15.845 36.0468 15.4217C36.0235 15.1153 36.1265 14.8408 36.2958 14.6301C36.1397 14.4108 36.0469 14.1449 36.0304 13.8618C36.0007 13.3917 36.1962 12.968 36.5148 12.6852C36.3887 12.4812 36.3125 12.2466 36.2958 12.004C36.2661 11.2976 36.7174 10.6785 37.3677 10.506C37.2681 10.3103 37.2116 10.0977 37.1984 9.86333C37.1514 8.96922 37.8251 8.20795 38.711 8.1544Z" fill="#88BC3D"/>
<path fill-rule="evenodd" clip-rule="evenodd" d="M37.1039 8.52262C37.21 7.08837 37.8636 5.81803 38.8426 4.89258C38.9987 4.82242 39.1713 4.76699 39.3403 4.72013C40.5216 4.47752 41.6896 5.24551 41.9352 6.43713C41.9683 6.60101 41.985 6.77346 41.985 6.93922C41.8757 6.93091 41.7828 6.93091 41.6732 6.93922C41.4542 6.95421 41.2383 6.99277 41.0259 7.0565C40.7308 6.8139 40.3522 6.68831 39.9642 6.71187C39.3637 6.74374 38.8524 7.11863 38.6268 7.66088C38.003 7.71417 37.4524 8.04381 37.1039 8.52262ZM38.7098 8.1544C38.8129 8.1544 38.9122 8.1544 39.0051 8.1694C39.055 7.65231 39.4664 7.24395 39.9939 7.21369C40.3656 7.19013 40.6941 7.36927 40.8964 7.65231C41.1454 7.52672 41.4173 7.46326 41.7029 7.44826C44.2677 7.30768 44.0819 9.8551 42.8147 11.055C42.2009 11.6358 41.6169 12.4191 41.0029 13.1555C40.7804 13.43 40.5681 13.7044 40.3591 13.9706C38.9058 13.3279 37.7776 12.0744 37.3196 10.5146C37.3361 10.5063 37.3528 10.5063 37.3662 10.5063C37.2666 10.3106 37.21 10.098 37.1968 9.86366C37.1503 8.96922 37.8241 8.20795 38.7098 8.1544Z" fill="#94C350"/>
<path fill-rule="evenodd" clip-rule="evenodd" d="M17.5038 1.11332C15.9939 1.66227 18.4661 9.9886 19.1032 11.7359C19.9425 14.0656 21.0476 15.8679 22.8031 17.2553L22.7867 12.4738C22.7867 11.9801 23.0223 11.5399 23.3773 11.2586C23.2711 10.9441 23.1618 10.616 23.0354 10.2947V10.2695L23.0056 10.2778C22.1594 10.3715 21.3965 10.4117 20.6895 10.3565C21.436 10.1927 22.0898 9.97147 22.8498 9.76904C22.6176 9.15634 22.3853 8.56076 22.1496 7.98829C21.3033 8.08362 20.5502 8.12218 19.8502 8.05845C20.5802 7.90287 21.2107 7.68355 21.934 7.4945C21.6983 6.94555 21.4663 6.42848 21.2337 5.92639C20.4573 6.00512 19.7573 6.03671 19.1034 5.99012C19.7737 5.84123 20.3543 5.64522 21.0081 5.47303C20.736 4.91579 20.4706 4.40701 20.2085 3.95178C19.4785 4.01364 18.8083 4.04551 18.1879 3.99034C18.8085 3.85806 19.3527 3.68561 19.95 3.51343C18.9471 1.85132 18.048 0.909006 17.5038 1.11332Z" fill="#EFAC4F"/>
<path fill-rule="evenodd" clip-rule="evenodd" d="M17.5043 1.11332C16.6018 1.44296 17.1295 4.59446 17.8361 7.41605C18.5595 7.91813 19.4222 8.21617 20.3646 8.21617C20.7894 8.21617 21.2039 8.15432 21.5923 8.04372C20.9685 8.09058 20.3946 8.10745 19.8504 8.05871C20.5804 7.90314 21.2108 7.68382 21.9342 7.49478C21.6985 6.94583 21.4665 6.42874 21.234 5.92666C20.4575 6.00538 19.7575 6.03698 19.1037 5.99039C19.7739 5.84151 20.3545 5.64549 21.0083 5.47331C20.7362 4.91606 20.4708 4.40728 20.2088 3.95206C19.4788 4.01391 18.8085 4.04577 18.1882 3.99061C18.8088 3.85833 19.353 3.68588 19.9502 3.5137C18.9476 1.85132 18.0485 0.909006 17.5043 1.11332Z" fill="#F2BC71"/>
<path fill-rule="evenodd" clip-rule="evenodd" d="M27.1634 11.431C27.7009 11.461 28.119 11.9079 28.119 12.4501V13.1247C27.2031 13.2886 26.4966 14.0954 26.4732 15.0677C26.4567 15.9931 27.0471 16.7764 27.8801 17.0442L28.1355 17.5143L28.1487 19.6617C26.3636 19.3403 24.7143 18.6275 23.3074 17.6081L23.284 12.4734C23.284 11.9328 23.7055 11.4775 24.233 11.4374V10.4584C24.233 10.0969 24.5118 9.81573 24.8701 9.80741L26.5191 9.7991C26.8743 9.7991 27.1562 10.0905 27.1562 10.4434L27.1634 11.431Z" fill="#F94141"/>
<path fill-rule="evenodd" clip-rule="evenodd" d="M27.1629 11.431C27.7004 11.461 28.1185 11.9079 28.1185 12.4501V13.1247C27.2027 13.2886 26.4961 14.0954 26.4727 15.0677C26.4727 15.2567 26.4859 15.4441 26.5325 15.6166C25.1653 14.8483 24.2394 13.3823 24.2394 11.6968C24.2394 11.0392 24.3822 10.4116 24.6275 9.85427C24.7005 9.83072 24.7767 9.81573 24.8696 9.80741L26.5186 9.7991C26.8738 9.7991 27.1557 10.0905 27.1557 10.4434L27.1629 11.431Z" fill="#FB5E5E"/>
<path fill-rule="evenodd" clip-rule="evenodd" d="M27.3122 36.4401C27.3122 38.0853 28.6328 39.4191 30.2654 39.4191C31.9045 39.4191 33.2252 38.0853 33.2252 36.4401C33.2252 34.7933 31.9045 33.4611 30.2654 33.4611C28.6326 33.4611 27.3122 34.7933 27.3122 36.4401ZM19.2588 39.2769C20.8914 39.2769 22.2187 37.9364 22.2187 36.2829C22.2187 34.6361 20.8914 33.3038 19.2588 33.3038C17.6263 33.3038 16.3056 34.6361 16.3056 36.2829C16.3056 37.9362 17.6263 39.2769 19.2588 39.2769ZM9.24791 16.0251C9.93152 19.2551 10.5853 22.4219 11.5176 24.8051C11.9524 25.903 12.9179 26.0285 14.8921 26.1858C15.3898 26.1774 15.8875 26.1692 16.3686 26.1692C30.3248 26.1223 37.2965 26.0905 37.2965 26.0905C39.5263 18.3682 40.6479 14.5039 40.6479 14.5039H40.6314C38.146 18.5174 33.4806 20.9089 28.5232 20.2277C24.0768 19.615 20.5096 16.6678 18.8707 12.7866C18.3562 11.5715 17.8455 10.0737 17.6199 8.84363C13.2996 7.77756 10.1208 7.00101 8.26923 6.54579C7.89757 5.63694 7.47603 4.79022 7.01838 4.04527C5.50157 1.58357 2.91338 -0.0314026 0 0.000463169L0.0164581 1.6623C2.3392 1.63043 4.39966 2.94095 5.61093 4.91581C7.27348 7.62038 8.30209 11.8698 9.24791 16.0251Z" fill="#0FA687"/>
<path fill-rule="evenodd" clip-rule="evenodd" d="M9.24831 16.0253C9.93184 19.2553 10.5856 22.422 11.518 24.8052C11.9528 25.9031 12.9182 26.0287 14.8924 26.1859L15.118 26.1776C17.6598 24.8839 19.3985 22.2262 19.3985 19.1618C19.3985 14.8171 15.9011 11.2974 11.5973 11.2974C10.416 11.2974 9.29451 11.5636 8.29236 12.0421C8.62762 13.3443 8.94624 14.6848 9.24831 16.0253Z" fill="#14B997"/>
<mask id="mask2_15_2" style="mask-type:luminance" maskUnits="userSpaceOnUse" x="28" y="15" width="8" height="5">
<path d="M28.3756 16.9094L29.9715 19.8333C31.4779 19.8652 32.961 19.599 34.3449 19.0819L35.5495 17.0736C35.0685 17.0117 34.6571 16.7287 34.4147 16.3222C33.7776 17.4268 33.2732 18.2352 32.9382 18.7672C32.8852 18.8543 32.7822 18.8928 32.6893 18.8543C32.5963 18.8141 32.5432 18.7204 32.5565 18.6267C32.6428 17.999 32.7755 17.05 32.9844 15.7647C32.9478 15.7328 32.908 15.7028 32.8783 15.6793C32.4105 16.086 31.8132 16.3053 31.1825 16.2901C31.1528 16.2901 31.1129 16.2901 31.0732 16.2901C31.1825 17.2776 31.259 18.0306 31.3054 18.5477C31.3219 18.6497 31.259 18.7367 31.1661 18.767C31.0732 18.7989 30.9736 18.767 30.917 18.6733C30.6383 18.1712 30.2168 17.4348 29.6893 16.4306C29.3642 16.7452 28.9129 16.9177 28.4449 16.9094C28.4154 16.9094 28.3987 16.9094 28.3756 16.9094Z" fill="white"/>
</mask>
<g mask="url(#mask2_15_2)">
<path d="M35.5495 15.6793H28.3756V19.8648H35.5495V15.6793Z" fill="url(#paint2_linear_15_2)"/>
</g>
<path fill-rule="evenodd" clip-rule="evenodd" d="M34.5288 15.8998C34.678 16.4086 35.1526 16.7936 35.7101 16.8086C36.4035 16.8169 36.9776 16.2597 36.9944 15.5552C37.0108 14.9125 36.5431 14.3635 35.9224 14.2682V14.2382C35.9357 13.2978 35.1893 12.506 34.2567 12.4893C33.9483 12.481 33.6661 12.5531 33.4174 12.6851C33.5434 13.03 33.4673 13.6574 33.2947 13.8767C33.6199 12.6149 32.5414 11.5336 31.2805 11.5101C30.0625 11.4782 29.0341 12.4505 29.0041 13.6893C28.8481 13.6255 28.6789 13.5956 28.5064 13.5956C27.6769 13.5789 26.9832 14.2382 26.9668 15.0849C26.9535 15.915 27.6139 16.6215 28.4432 16.6364C29.1302 16.653 29.7206 16.1978 29.9133 15.5787C30.2717 15.8363 30.7129 16.0021 31.1875 16.0088C31.8644 16.0254 32.4718 15.7426 32.8896 15.2724C33.1949 15.6639 33.6595 15.915 34.1803 15.9234C34.3031 15.9313 34.4128 15.9148 34.5288 15.8998Z" fill="#3FA248"/>
<path fill-rule="evenodd" clip-rule="evenodd" d="M33.062 12.4658C32.6969 11.9018 32.0201 11.5253 31.2802 11.5101C30.0623 11.4782 29.0339 12.4505 29.004 13.6893C28.8478 13.6255 28.6788 13.5956 28.5062 13.5956C27.6767 13.5789 26.983 14.2382 26.9666 15.0849C26.9666 15.3896 27.0462 15.6807 27.2023 15.915C27.6669 16.0875 28.1645 16.1812 28.6857 16.1812C29.0207 16.1812 29.3392 16.1343 29.6514 16.0725C29.7676 15.9319 29.8606 15.7595 29.9136 15.5787C30.0629 15.6807 30.2157 15.7745 30.3716 15.8363C31.7644 15.264 32.7965 14.0021 33.062 12.4658Z" fill="#5CB065"/>
<path d="M53.2121 6.77128V15.7291H51.0588V6.77128H53.2121ZM56.1803 6.77128H57.9398L59.9394 13.0036L61.9389 6.77128H63.6984L60.653 15.7291H59.2257L56.1803 6.77128ZM55.1098 6.77128H56.9308L57.2692 13.6373V15.7291H55.1098V6.77128ZM62.9479 6.77128H64.7751V15.7291H62.6095V13.6373L62.9479 6.77128ZM73.8648 10.9426V14.6217C73.7131 14.7898 73.4793 14.9703 73.1634 15.1631C72.8517 15.3517 72.458 15.5137 71.9822 15.6491C71.5064 15.7844 70.9466 15.8521 70.3026 15.8521C69.7079 15.8521 69.1685 15.7578 68.6845 15.5691C68.2005 15.3764 67.7842 15.0954 67.4356 14.7263C67.0911 14.353 66.8245 13.8977 66.6358 13.3604C66.4513 12.8191 66.3589 12.1997 66.3589 11.5024V11.0041C66.3589 10.3068 66.4533 9.6875 66.642 9.14611C66.8307 8.60464 67.0952 8.1494 67.4356 7.78026C67.7801 7.40702 68.1841 7.12401 68.6476 6.93123C69.1152 6.73846 69.6279 6.64207 70.1857 6.64207C71.0102 6.64207 71.6808 6.77333 72.1975 7.03583C72.7144 7.29423 73.106 7.65311 73.3726 8.11249C73.6392 8.56775 73.8013 9.09481 73.8587 9.6936H71.7853C71.7443 9.39836 71.6663 9.14809 71.5515 8.94303C71.4408 8.73386 71.2808 8.57598 71.0717 8.46934C70.8625 8.35857 70.5918 8.30323 70.2595 8.30323C70.0012 8.30323 69.7653 8.35857 69.552 8.46934C69.3428 8.5801 69.1645 8.74827 69.0168 8.97383C68.8691 9.19528 68.7543 9.47421 68.6722 9.81054C68.5943 10.1469 68.5554 10.5406 68.5554 10.9918V11.5024C68.5554 11.9495 68.5923 12.3412 68.6661 12.6775C68.744 13.0138 68.8588 13.2948 69.0106 13.5204C69.1664 13.7419 69.3633 13.9101 69.6013 14.0249C69.8432 14.1356 70.1283 14.191 70.4564 14.191C70.6861 14.191 70.883 14.1725 71.047 14.1356C71.2111 14.0946 71.3465 14.0454 71.4531 13.988C71.5638 13.9265 71.6479 13.8691 71.7054 13.8157V12.4252H70.2042V10.9426H73.8648Z" fill="#0FA687"/>
<path d="M86.3471 10.9426V14.6217C86.1955 14.7898 85.9617 14.9703 85.6454 15.1631C85.3341 15.3517 84.9405 15.5137 84.4645 15.6491C83.9885 15.7844 83.4293 15.8521 82.7853 15.8521C82.1902 15.8521 81.6509 15.7578 81.1669 15.5692C80.6829 15.3764 80.2666 15.0954 79.9179 14.7263C79.5735 14.353 79.3069 13.8977 79.1182 13.3604C78.9336 12.8191 78.8413 12.1997 78.8413 11.5024V11.0041C78.8413 10.3068 78.9356 9.6875 79.1243 9.14612C79.313 8.60464 79.5776 8.1494 79.9179 7.78026C80.2625 7.40702 80.6665 7.12401 81.13 6.93123C81.5975 6.73846 82.1103 6.64207 82.6684 6.64207C83.4927 6.64207 84.1631 6.77333 84.6802 7.03583C85.1966 7.29423 85.5886 7.65311 85.8546 8.11249C86.1214 8.56775 86.2837 9.09481 86.3413 9.6936H84.2677C84.2265 9.39836 84.1491 9.14809 84.0338 8.94303C83.9234 8.73386 83.7628 8.57599 83.5537 8.46934C83.3445 8.35857 83.0744 8.30323 82.7417 8.30323C82.4839 8.30323 82.2477 8.35857 82.0344 8.46934C81.8252 8.5801 81.6468 8.74827 81.4991 8.97383C81.3515 9.19528 81.2367 9.47421 81.1546 9.81054C81.0766 10.1469 81.0377 10.5406 81.0377 10.9918V11.5024C81.0377 11.9495 81.0746 12.3412 81.1485 12.6775C81.2264 13.0138 81.3412 13.2948 81.4929 13.5204C81.6488 13.7419 81.8457 13.9101 82.0836 14.0249C82.3256 14.1356 82.6107 14.191 82.9385 14.191C83.1682 14.191 83.3651 14.1725 83.5298 14.1356C83.6937 14.0946 83.8287 14.0454 83.9358 13.988C84.0461 13.9265 84.1301 13.8691 84.1878 13.8157V12.4252H82.6865V10.9426H86.3471ZM89.9797 10.7211V15.7291H87.9068V9.07224H89.8446L89.9797 10.7211ZM91.9487 9.023L91.9117 10.9487C91.8293 10.9405 91.7189 10.9303 91.5798 10.9179C91.4398 10.9057 91.3228 10.8995 91.2289 10.8995C90.9868 10.8995 90.7777 10.9282 90.6014 10.9856C90.4285 11.0389 90.2852 11.121 90.1707 11.2317C90.0595 11.3384 89.978 11.4737 89.9245 11.6378C89.8751 11.8018 89.8528 11.9926 89.8569 12.21L89.4814 11.9638C89.4814 11.5168 89.5242 11.1107 89.6107 10.7457C89.7005 10.3766 89.8281 10.0587 89.992 9.79209C90.1559 9.5214 90.3552 9.31428 90.5891 9.17066C90.8229 9.023 91.0848 8.94921 91.3764 8.94921C91.4785 8.94921 91.5798 8.95539 91.6778 8.96766C91.7807 8.97993 91.8705 8.99846 91.9487 9.023ZM92.5606 12.4683V12.3392C92.5606 11.8511 92.6298 11.4019 92.7698 10.9918C92.9089 10.5775 93.114 10.2186 93.385 9.91513C93.6551 9.61157 93.9894 9.3758 94.3872 9.20763C94.7858 9.03535 95.2445 8.94921 95.7658 8.94921C96.2904 8.94921 96.7524 9.03535 97.1501 9.20763C97.552 9.3758 97.888 9.61157 98.1589 9.91513C98.4299 10.2186 98.6349 10.5775 98.7741 10.9918C98.9133 11.4019 98.9833 11.8511 98.9833 12.3392V12.4683C98.9833 12.9523 98.9133 13.4015 98.7741 13.8157C98.6349 14.2259 98.4299 14.5848 98.1589 14.8924C97.888 15.1958 97.5537 15.4317 97.1559 15.5999C96.7581 15.768 96.2986 15.8521 95.7781 15.8521C95.2568 15.8521 94.7957 15.768 94.3938 15.5999C93.9919 15.4317 93.6551 15.1958 93.385 14.8924C93.114 14.5848 92.9089 14.2259 92.7698 13.8157C92.6298 13.4015 92.5606 12.9523 92.5606 12.4683ZM94.6334 12.3392V12.4683C94.6334 12.7185 94.6524 12.9523 94.6894 13.1697C94.7257 13.3871 94.7874 13.5779 94.8739 13.7419C94.9595 13.9018 95.0765 14.0269 95.2239 14.1172C95.3721 14.2074 95.5566 14.2525 95.7781 14.2525C95.9955 14.2525 96.1759 14.2074 96.3192 14.1172C96.4674 14.0269 96.5835 13.9018 96.67 13.7419C96.7565 13.5779 96.8174 13.3871 96.8545 13.1697C96.8915 12.9523 96.9097 12.7185 96.9097 12.4683V12.3392C96.9097 12.0972 96.8915 11.8695 96.8545 11.6562C96.8174 11.4388 96.7565 11.2481 96.67 11.084C96.5835 10.9159 96.4674 10.7847 96.3192 10.6903C96.1718 10.596 95.9873 10.5488 95.7658 10.5488C95.5484 10.5488 95.3655 10.596 95.2181 10.6903C95.0748 10.7847 94.9595 10.9159 94.8739 11.084C94.7874 11.2481 94.7257 11.4388 94.6894 11.6562C94.6524 11.8695 94.6334 12.0972 94.6334 12.3392ZM103.096 14.2525C103.289 14.2525 103.453 14.2177 103.588 14.1479C103.728 14.0741 103.832 13.9716 103.901 13.8403C103.976 13.7049 104.01 13.5429 104.006 13.3543H105.957C105.961 13.8546 105.838 14.2935 105.587 14.6708C105.342 15.0442 105.005 15.3354 104.578 15.5445C104.156 15.7496 103.678 15.8521 103.145 15.8521C102.624 15.8521 102.169 15.768 101.779 15.5999C101.39 15.4276 101.064 15.1898 100.801 14.8862C100.542 14.5786 100.348 14.2197 100.216 13.8095C100.089 13.3994 100.026 12.9544 100.026 12.4745V12.333C100.026 11.8531 100.089 11.4081 100.216 10.9979C100.348 10.5837 100.542 10.2248 100.801 9.9213C101.064 9.61363 101.387 9.3758 101.773 9.20763C102.163 9.03535 102.616 8.94921 103.133 8.94921C103.686 8.94921 104.175 9.0538 104.597 9.26297C105.024 9.47215 105.358 9.7757 105.6 10.1736C105.842 10.5714 105.961 11.0533 105.957 11.6193H104.006C104.01 11.4183 103.98 11.2379 103.914 11.078C103.849 10.9179 103.746 10.7908 103.607 10.6965C103.471 10.598 103.297 10.5488 103.084 10.5488C102.87 10.5488 102.698 10.596 102.566 10.6903C102.436 10.7847 102.335 10.9159 102.265 11.084C102.2 11.2481 102.155 11.4368 102.13 11.6501C102.109 11.8634 102.1 12.091 102.1 12.333V12.4745C102.1 12.7206 102.109 12.9523 102.13 13.1697C102.155 13.383 102.202 13.5717 102.272 13.7357C102.341 13.8957 102.441 14.0228 102.573 14.1172C102.704 14.2074 102.879 14.2525 103.096 14.2525ZM110.444 15.8521C109.903 15.8521 109.419 15.768 108.992 15.5999C108.566 15.4276 108.205 15.1918 107.91 14.8924C107.619 14.5929 107.395 14.2485 107.239 13.8588C107.088 13.4692 107.011 13.0569 107.011 12.6222V12.3884C107.011 11.9002 107.079 11.4491 107.214 11.0349C107.35 10.6165 107.55 10.2515 107.817 9.93975C108.084 9.62804 108.418 9.38601 108.82 9.21373C109.222 9.03741 109.69 8.94921 110.223 8.94921C110.695 8.94921 111.117 9.02506 111.49 9.17683C111.863 9.32861 112.18 9.54602 112.438 9.82899C112.7 10.112 112.899 10.4545 113.034 10.8564C113.174 11.2584 113.244 11.7095 113.244 12.21V13.0529H107.805V11.7546H111.219V11.5947C111.223 11.3733 111.185 11.1845 111.102 11.0287C111.025 10.8728 110.91 10.7539 110.758 10.6719C110.607 10.5898 110.422 10.5488 110.205 10.5488C109.979 10.5488 109.792 10.598 109.645 10.6965C109.501 10.7949 109.389 10.9303 109.306 11.1025C109.228 11.2707 109.173 11.4655 109.14 11.687C109.107 11.9085 109.091 12.1423 109.091 12.3884V12.6222C109.091 12.8682 109.123 13.0918 109.189 13.2928C109.259 13.4938 109.357 13.666 109.485 13.8095C109.616 13.949 109.772 14.0577 109.952 14.1356C110.137 14.2135 110.346 14.2525 110.579 14.2525C110.863 14.2525 111.142 14.1992 111.416 14.0926C111.691 13.9859 111.928 13.8095 112.124 13.5634L113.066 14.6832C112.93 14.876 112.737 15.0626 112.487 15.243C112.241 15.4236 111.946 15.5712 111.601 15.686C111.256 15.7968 110.871 15.8521 110.444 15.8521ZM116.557 10.7211V15.7291H114.483V9.07224H116.421L116.557 10.7211ZM118.525 9.023L118.489 10.9487C118.406 10.9405 118.295 10.9303 118.156 10.9179C118.017 10.9057 117.9 10.8995 117.805 10.8995C117.563 10.8995 117.354 10.9282 117.178 10.9856C117.005 11.0389 116.862 11.121 116.747 11.2317C116.636 11.3384 116.554 11.4737 116.501 11.6378C116.452 11.8018 116.429 11.9926 116.433 12.21L116.058 11.9638C116.058 11.5168 116.101 11.1107 116.188 10.7457C116.277 10.3766 116.404 10.0587 116.569 9.79209C116.733 9.5214 116.931 9.31428 117.165 9.17066C117.399 9.023 117.662 8.94921 117.953 8.94921C118.055 8.94921 118.156 8.95539 118.255 8.96766C118.357 8.97993 118.447 8.99846 118.525 9.023ZM121.77 14.9477L123.493 9.07224H125.72L123.044 16.7196C122.986 16.8878 122.91 17.0682 122.816 17.261C122.722 17.4579 122.592 17.6445 122.428 17.8208C122.264 17.9972 122.053 18.1408 121.795 18.2516C121.541 18.3623 121.224 18.4177 120.847 18.4177C120.646 18.4177 120.499 18.4074 120.404 18.3869C120.314 18.3705 120.174 18.3398 119.986 18.2946V16.8119C120.039 16.8119 120.085 16.8119 120.122 16.8119C120.162 16.8119 120.207 16.8119 120.257 16.8119C120.478 16.8119 120.654 16.7894 120.785 16.7442C120.921 16.6991 121.023 16.6335 121.093 16.5473C121.168 16.4612 121.224 16.3566 121.266 16.2336L121.77 14.9477ZM121.333 9.07224L122.644 13.7296L122.871 15.926H121.481L119.112 9.07224H121.333Z" fill="black"/>
<path d="M54.7257 30.2024H52.7326L52.7454 28.927H54.7257C55.3025 28.927 55.7853 28.801 56.1741 28.549C56.5672 28.2969 56.8619 27.9358 57.0585 27.4658C57.2593 26.9959 57.3597 26.4362 57.3597 25.7868V25.2805C57.3597 24.7764 57.302 24.3299 57.1867 23.9411C57.0756 23.5523 56.909 23.2254 56.6868 22.9606C56.4689 22.6956 56.1997 22.4949 55.8793 22.3582C55.5632 22.2215 55.1978 22.153 54.7834 22.153H52.6941V20.8714H54.7834C55.4029 20.8714 55.969 20.976 56.4817 21.1854C56.9944 21.3904 57.4366 21.6874 57.8083 22.0762C58.1843 22.465 58.4727 22.9307 58.6735 23.4732C58.8743 24.0158 58.9747 24.6225 58.9747 25.2933V25.7868C58.9747 26.4575 58.8743 27.0642 58.6735 27.6068C58.4727 28.1495 58.1843 28.6152 57.8083 29.004C57.4323 29.3885 56.9837 29.6854 56.4625 29.8948C55.9455 30.0998 55.3666 30.2024 54.7257 30.2024ZM53.6234 20.8714V30.2024H52.0149V20.8714H53.6234ZM66.7741 30.3306C66.2614 30.3306 65.7978 30.2472 65.3834 30.0806C64.9732 29.9097 64.6229 29.6726 64.3323 29.3693C64.0461 29.0659 63.826 28.7091 63.6723 28.299C63.5184 27.8888 63.4415 27.4467 63.4415 26.9724V26.716C63.4415 26.1734 63.5206 25.6821 63.6787 25.2421C63.8367 24.802 64.0568 24.426 64.3388 24.1141C64.6207 23.7979 64.954 23.5566 65.3385 23.39C65.723 23.2233 66.1396 23.14 66.5882 23.14C67.0838 23.14 67.5175 23.2233 67.8892 23.39C68.2609 23.5566 68.5685 23.7915 68.812 24.0949C69.0598 24.3939 69.2435 24.7507 69.3632 25.1652C69.4871 25.5796 69.5491 26.0367 69.5491 26.5366V27.1967H64.1914V26.088H68.0237V25.9662C68.0152 25.6885 67.9597 25.4279 67.8571 25.1843C67.7589 24.9408 67.6072 24.7443 67.4021 24.5948C67.1971 24.4452 66.9236 24.3704 66.5818 24.3704C66.3254 24.3704 66.0969 24.426 65.8961 24.537C65.6996 24.6439 65.535 24.7998 65.4026 25.0049C65.2702 25.21 65.1676 25.4578 65.095 25.7483C65.0267 26.0346 64.9925 26.3571 64.9925 26.716V26.9724C64.9925 27.2757 65.0331 27.5578 65.1142 27.8183C65.1997 28.0747 65.3235 28.299 65.4859 28.4912C65.6483 28.6835 65.8448 28.8352 66.0755 28.9462C66.3063 29.053 66.569 29.1065 66.8638 29.1065C67.2355 29.1065 67.5666 29.0317 67.8571 28.8822C68.1477 28.7326 68.3998 28.5211 68.6134 28.2477L69.4273 29.036C69.2777 29.2539 69.0834 29.4632 68.844 29.664C68.6048 29.8606 68.3121 30.0208 67.9661 30.1447C67.6243 30.2686 67.227 30.3306 66.7741 30.3306ZM75.6886 20.3586V30.2024H74.1377V20.3586H75.6886ZM82.3152 23.2682V30.2024H80.7642V23.2682H82.3152ZM80.6617 21.4481C80.6617 21.2131 80.7386 21.0187 80.8925 20.8649C81.0505 20.7068 81.2684 20.6278 81.5461 20.6278C81.8196 20.6278 82.0353 20.7068 82.1934 20.8649C82.3515 21.0187 82.4304 21.2131 82.4304 21.4481C82.4304 21.6788 82.3515 21.871 82.1934 22.0249C82.0353 22.1787 81.8196 22.2556 81.5461 22.2556C81.2684 22.2556 81.0505 22.1787 80.8925 22.0249C80.7386 21.871 80.6617 21.6788 80.6617 21.4481ZM89.544 28.9783L91.2422 23.2682H92.8447L90.4351 30.2024H89.4353L89.544 28.9783ZM88.2429 23.2682L89.9739 29.004L90.0571 30.2024H89.0573L86.6345 23.2682H88.2429ZM100.048 30.3306C99.5351 30.3306 99.0714 30.2472 98.6572 30.0806C98.2471 29.9097 97.8971 29.6726 97.6064 29.3693C97.3198 29.0659 97.0999 28.7091 96.9459 28.299C96.7927 27.8888 96.7153 27.4467 96.7153 26.9724V26.716C96.7153 26.1734 96.7944 25.6821 96.9525 25.2421C97.1106 24.802 97.3305 24.426 97.613 24.1141C97.8946 23.7979 98.2282 23.5566 98.6127 23.39C98.9973 23.2233 99.4132 23.14 99.862 23.14C100.358 23.14 100.792 23.2233 101.163 23.39C101.535 23.5566 101.843 23.7915 102.086 24.0949C102.333 24.3939 102.517 24.7507 102.637 25.1652C102.761 25.5796 102.823 26.0367 102.823 26.5366V27.1967H97.4656V26.088H101.297V25.9662C101.289 25.6885 101.233 25.4279 101.131 25.1843C101.033 24.9408 100.881 24.7443 100.676 24.5948C100.471 24.4452 100.197 24.3704 99.8555 24.3704C99.5993 24.3704 99.3712 24.426 99.1703 24.537C98.9735 24.6439 98.8087 24.7998 98.6762 25.0049C98.5444 25.21 98.4415 25.4578 98.369 25.7483C98.3006 26.0346 98.266 26.3571 98.266 26.716V26.9724C98.266 27.2757 98.3072 27.5578 98.3879 27.8183C98.4736 28.0747 98.5971 28.299 98.7602 28.4912C98.9224 28.6835 99.1184 28.8352 99.3498 28.9462C99.5804 29.053 99.8431 29.1065 100.138 29.1065C100.509 29.1065 100.84 29.0317 101.131 28.8822C101.422 28.7326 101.674 28.5211 101.887 28.2477L102.702 29.036C102.552 29.2539 102.357 29.4632 102.118 29.664C101.879 29.8606 101.586 30.0208 101.24 30.1447C100.898 30.2686 100.501 30.3306 100.048 30.3306ZM108.86 24.5884V30.2024H107.316V23.2682H108.789L108.86 24.5884ZM110.981 23.2233L110.968 24.6588C110.874 24.6418 110.772 24.629 110.661 24.6204C110.554 24.6118 110.447 24.6075 110.341 24.6075C110.075 24.6075 109.842 24.646 109.641 24.7229C109.441 24.7956 109.273 24.9024 109.136 25.0434C109.003 25.1801 108.9 25.3467 108.828 25.5432C108.755 25.7398 108.713 25.9598 108.699 26.2034L108.347 26.229C108.347 25.7932 108.39 25.3894 108.475 25.0177C108.561 24.646 108.689 24.3192 108.86 24.0372C109.035 23.7552 109.253 23.5352 109.514 23.3771C109.778 23.2191 110.084 23.14 110.43 23.14C110.524 23.14 110.625 23.1485 110.731 23.1656C110.842 23.1828 110.925 23.2019 110.981 23.2233ZM117.358 29.4461L119.242 23.2682H120.896L118.114 31.2598C118.05 31.4307 117.967 31.6165 117.864 31.8174C117.761 32.0182 117.627 32.2083 117.46 32.3878C117.298 32.5715 117.095 32.7188 116.851 32.8299C116.608 32.9453 116.313 33.0029 115.967 33.0029C115.83 33.0029 115.698 32.9902 115.57 32.9646C115.446 32.9431 115.329 32.9197 115.218 32.894L115.211 31.7148C115.254 31.7191 115.305 31.7233 115.365 31.7276C115.429 31.7319 115.48 31.734 115.519 31.734C115.775 31.734 115.988 31.702 116.16 31.6379C116.33 31.5781 116.469 31.4798 116.576 31.3431C116.687 31.2064 116.781 31.0227 116.858 30.792L117.358 29.4461ZM116.294 23.2682L117.941 28.4592L118.217 30.087L117.146 30.3626L114.628 23.2682H116.294Z" fill="#0FA687"/>
<defs>
<linearGradient id="paint0_linear_15_2" x1="27.9407" y1="15.3715" x2="32.4588" y2="6.41367" gradientUnits="userSpaceOnUse">
<stop stop-color="#FF2254"/>
<stop offset="0.25" stop-color="#FF3F47"/>
<stop offset="0.46" stop-color="#F25F41"/>
<stop offset="0.68" stop-color="#FF7D2C"/>
<stop offset="1" stop-color="#F2C822"/>
</linearGradient>
<linearGradient id="paint1_linear_15_2" x1="29.293" y1="14.2136" x2="35.9597" y2="6.72888" gradientUnits="userSpaceOnUse">
<stop stop-color="#FF2254"/>
<stop offset="0.25" stop-color="#FF3F47"/>
<stop offset="0.46" stop-color="#F25F41"/>
<stop offset="0.68" stop-color="#FF7D2C"/>
<stop offset="1" stop-color="#F2C822"/>
</linearGradient>
<linearGradient id="paint2_linear_15_2" x1="33.8287" y1="20.9895" x2="29.3946" y2="13.4771" gradientUnits="userSpaceOnUse">
<stop stop-color="#9ED332"/>
<stop offset="0.4" stop-color="#99D431"/>
<stop offset="1" stop-color="#FAEA29"/>
</linearGradient>
</defs>
</svg>
