<svg width="137" height="41" viewBox="0 0 137 41" fill="none" xmlns="http://www.w3.org/2000/svg">
<path d="M33.0401 5.70215C33.011 5.61065 32.9722 5.5257 32.9105 5.43421C32.7615 5.18901 32.5024 5.00603 32.1979 4.93597L32.1396 5.20391C32.3827 5.25776 32.5641 5.4031 32.6838 5.58791C32.8068 5.77089 32.8522 6.0161 32.8068 6.24456L33.0336 6.29187L33.0627 6.30651L33.3057 6.35226C33.3218 6.28377 33.3446 6.21502 33.3834 6.15307V6.14653V6.13843C33.4513 6.00119 33.5583 5.89323 33.6846 5.80854C33.8691 5.68594 34.1023 5.64019 34.3389 5.69404L34.3907 5.41957C34.0896 5.35735 33.7752 5.41957 33.5356 5.57145C33.4579 5.63366 33.3832 5.69404 33.3153 5.75599C33.3218 5.66293 33.3381 5.57145 33.3736 5.47995C33.4579 5.26587 33.61 5.09778 33.8369 4.99793L33.7235 4.74463C33.4353 4.86723 33.2311 5.10405 33.1176 5.37199C33.079 5.47995 33.0499 5.58791 33.0401 5.70215Z" fill="#BEC230"/>
<path d="M29.8457 6.19892C29.7939 6.12207 29.726 6.04704 29.6483 5.98483C29.4378 5.79374 29.1332 5.68579 28.8289 5.71036L28.8449 5.98483C29.0881 5.9702 29.3083 6.04704 29.4734 6.19892C29.6418 6.33773 29.7553 6.55182 29.7714 6.78865L30.0145 6.76565L30.2865 6.75101C30.2865 6.67415 30.2865 6.59756 30.3026 6.52881V6.52071C30.3316 6.36701 30.3933 6.23003 30.5001 6.11553C30.6361 5.94719 30.8468 5.83113 31.0831 5.81649L31.0603 5.53391C30.7428 5.55692 30.4772 5.71036 30.2861 5.93909C30.2243 6.00757 30.1663 6.0928 30.1274 6.17592C30.1046 6.08443 30.0885 5.98483 30.1046 5.89334C30.1207 5.66304 30.2243 5.44896 30.4091 5.29708L30.2246 5.08142C29.9815 5.28898 29.8553 5.57156 29.8328 5.8625C29.8165 5.97673 29.8232 6.0928 29.8457 6.19892Z" fill="#BEC230"/>
<mask id="mask0_15_36" style="mask-type:luminance" maskUnits="userSpaceOnUse" x="28" y="6" width="4" height="6">
<path d="M30.1806 6.65154C30.7735 6.72003 31.214 7.01097 31.4923 7.53038C31.1974 7.63808 30.7896 7.71493 30.242 7.76068C30.6664 7.80642 31.107 7.76878 31.5475 7.63808C31.69 7.92875 31.7906 8.29655 31.8356 8.72447C31.5475 8.8322 31.136 8.90906 30.5983 8.93856C31.0098 8.99242 31.4244 8.9548 31.8582 8.84707C31.8872 9.17692 31.897 9.55131 31.881 9.9646C31.5928 10.0722 31.1813 10.1476 30.6532 10.1787C31.0451 10.2244 31.4566 10.1948 31.8743 10.0872C31.8582 10.3928 31.829 10.7291 31.7805 11.0821C31.4112 10.868 30.987 10.7522 30.5465 10.7454C30.2256 10.7373 29.9245 10.7911 29.6364 10.8826C29.5747 9.97264 29.1798 8.32742 28.8007 7.65271L28.7488 7.55312C29.0438 6.94901 29.5231 6.6288 30.1806 6.65154Z" fill="white"/>
</mask>
<g mask="url(#mask0_15_36)">
<path d="M31.8981 6.62881H28.7496V11.0826H31.8981V6.62881Z" fill="url(#paint0_linear_15_36)"/>
</g>
<mask id="mask1_15_36" style="mask-type:luminance" maskUnits="userSpaceOnUse" x="31" y="6" width="4" height="6">
<path d="M33.199 6.21527C33.8533 6.4751 34.216 6.99451 34.2938 7.76905C33.9958 7.76905 33.6102 7.7152 33.1308 7.6007C33.4871 7.76068 33.8823 7.85218 34.3068 7.88328C34.3228 8.21157 34.2938 8.58749 34.2031 9.00729C33.915 9.00078 33.5584 8.94692 33.1246 8.83895C33.4516 8.99266 33.8082 9.0774 34.187 9.12338C34.1124 9.4517 34.0057 9.81113 33.8696 10.2098C33.5877 10.1952 33.2316 10.1413 32.7911 10.0333C33.1249 10.1787 33.4649 10.2702 33.8375 10.3094C33.7403 10.5839 33.6271 10.8682 33.5037 11.1735C33.2316 11.1505 32.8979 11.0967 32.503 11.0052C32.8074 11.1359 33.1249 11.2274 33.4586 11.265C33.3969 11.4104 33.3291 11.5557 33.2611 11.7094C33.0508 11.7176 32.8367 11.7698 32.6392 11.8402C32.5195 11.6783 32.3832 11.5265 32.2311 11.3876L32.2601 11.1424C32.3961 10.0722 32.4739 8.74071 32.1078 7.71494C31.9717 7.33277 31.774 7.01908 31.5312 6.76578C31.9714 6.21527 32.5416 6.01582 33.199 6.21527Z" fill="white"/>
</mask>
<g mask="url(#mask1_15_36)">
<path d="M34.3218 6.01607H31.5296V11.8404H34.3218V6.01607Z" fill="url(#paint1_linear_15_36)"/>
</g>
<path fill-rule="evenodd" clip-rule="evenodd" d="M24.9382 5.75595C24.2484 5.31156 23.351 5.10401 22.593 5.18086C23.5195 4.59271 24.3064 4.49964 24.9611 4.89828C24.5205 4.40816 23.8307 4.05683 22.8879 3.83464C24.1253 3.72014 24.8542 3.81163 25.0582 4.11721C24.9317 3.74968 24.6275 3.33614 24.1577 2.87711C24.977 2.81673 25.4762 3.13852 25.6897 3.84274C25.8646 3.12231 26.357 2.77752 27.1766 2.80026C26.7296 3.29039 26.4479 3.71204 26.3409 4.07957C26.5322 3.77242 27.251 3.64329 28.4949 3.68903C27.562 3.95697 26.8882 4.34751 26.4767 4.86691C27.0986 4.4241 27.8954 4.48475 28.8607 5.02062C28.1028 4.98141 27.2282 5.24281 26.5834 5.69374C26.0685 5.50291 25.2036 5.62525 24.9382 5.75595Z" fill="#283B49"/>
<path fill-rule="evenodd" clip-rule="evenodd" d="M23.4974 7.64654L24.3686 9.09235L24.8092 9.08423L25.5995 7.60732L24.8382 6.35259C24.3171 6.60563 23.8537 7.05655 23.4974 7.64654ZM25.2044 6.20699L25.8102 7.21653L26.3739 6.16935C26.1826 6.12203 25.9916 6.10713 25.7876 6.10713C25.5834 6.11549 25.3858 6.15314 25.2044 6.20699ZM26.7366 6.29195L26.0369 7.59243L27.1383 9.39768L28.1489 7.51557C27.7537 6.94885 27.2743 6.52067 26.7366 6.29195ZM26.7529 9.49102L25.833 7.98296L25.2435 9.08399L25.8882 9.07748C26.2347 9.07772 26.5457 9.24582 26.7529 9.49102ZM26.9344 9.78171L26.902 9.7506C26.918 9.76523 26.918 9.78171 26.9278 9.79635L26.9344 9.78171ZM28.3756 7.898L27.3749 9.78171L28.4957 11.6327C28.6931 11.4335 28.9134 11.2651 29.1564 11.1049C29.1562 10.3325 28.7319 8.52534 28.3756 7.898ZM28.0875 11.6949L27.1611 10.1641L27.0025 10.4548V10.7766C27.4106 10.9284 27.7312 11.2813 27.8675 11.7095L28.0875 11.6949ZM23.9605 9.13809L23.2932 8.03707C23.073 8.46529 22.911 8.95512 22.8073 9.49102C22.8527 9.62012 22.898 9.75084 22.9434 9.87995C23.0181 10.0956 23.0958 10.3097 23.1702 10.5236V10.2099C23.1702 9.7051 23.5039 9.27532 23.9605 9.13809Z" fill="#FFCC00"/>
<path d="M18.6807 24.3449L13.3523 29.403C13.294 29.4652 13.2617 29.5256 13.2487 29.6022C13.2326 29.6707 13.2326 29.7559 13.2617 29.8325C13.294 29.9078 13.3459 29.9698 13.3978 30.0009C13.469 30.0466 13.5372 30.0613 13.6278 30.0613L35.1589 29.7329L34.673 31.3848L13.641 31.7146C13.2264 31.7146 12.8312 31.6001 12.504 31.3779C12.1702 31.1557 11.9111 30.842 11.7524 30.4434C11.5939 30.0529 11.5646 29.6396 11.6457 29.2509C11.7299 28.8604 11.9276 28.4994 12.2386 28.2085L17.5638 23.1422L18.6807 24.3449Z" fill="#0FA687"/>
<path fill-rule="evenodd" clip-rule="evenodd" d="M35.6221 5.73988C35.7193 5.71688 35.81 5.71061 35.9103 5.71061C35.8779 5.20401 36.2213 4.74498 36.7201 4.63885C37.0699 4.562 37.4197 4.6846 37.6629 4.92953C37.8732 4.77583 38.1323 4.66813 38.4045 4.60775C39.5576 4.37091 40.6978 5.12062 40.9375 6.28387C40.9699 6.44384 40.9863 6.61219 40.9863 6.77399C40.8794 6.76589 40.7887 6.76589 40.6817 6.77399C40.468 6.78863 40.2573 6.82627 40.0499 6.88849C39.7618 6.65166 39.3923 6.52906 39.0134 6.55206C38.4273 6.58317 37.9281 6.94913 37.7079 7.47848C36.6066 7.56996 35.7644 8.54215 35.8261 9.6596C35.8326 9.76579 35.8421 9.87368 35.8714 9.97988C35.2785 10.3474 34.9061 11.0205 34.945 11.7412C34.961 11.9323 34.9999 12.1234 35.0681 12.2917C35.0357 12.3293 35.0065 12.3686 34.9904 12.3994C34.6955 12.0776 34.3067 11.8473 33.8696 11.7558C33.8597 11.7101 33.8536 11.679 33.8468 11.6332C33.8369 11.6251 33.8369 11.6186 33.8369 11.6021C34.3228 10.5238 34.8087 9.16953 34.7926 8.02089C34.7862 7.52422 34.689 7.07984 34.4752 6.70394C34.6732 6.23001 35.0813 5.84758 35.6221 5.73988ZM37.7893 7.96024C37.8898 7.96024 37.9868 7.96024 38.0774 7.97488C38.1262 7.47011 38.5278 7.07147 39.0427 7.04193C39.4055 7.01893 39.7263 7.19381 39.9238 7.47011C40.1668 7.34751 40.4322 7.28556 40.711 7.27092C43.2148 7.13368 43.0334 9.62045 41.7963 10.7918C41.1971 11.3588 40.6271 12.1234 40.0277 12.8422C38.5407 14.6491 37.5949 16.425 35.2954 17.7796C35.4477 17.1669 35.6128 16.5772 35.7877 15.9955C35.4477 15.8206 35.2046 15.4678 35.1886 15.0545C35.1658 14.7554 35.2664 14.4875 35.4317 14.2817C35.2793 14.0677 35.1886 13.8081 35.1725 13.5318C35.1435 13.0728 35.3345 12.6593 35.6454 12.3832C35.5223 12.184 35.448 11.955 35.4317 11.7182C35.4026 11.0286 35.8432 10.4242 36.478 10.2559C36.3808 10.0648 36.3257 9.85728 36.3127 9.62848C36.2668 8.75567 36.9245 8.01252 37.7893 7.96024Z" fill="#88BC3D"/>
<path fill-rule="evenodd" clip-rule="evenodd" d="M36.2205 8.3197C36.3241 6.9196 36.9621 5.6795 37.9178 4.77609C38.0701 4.7076 38.2386 4.65349 38.4037 4.60775C39.5568 4.37091 40.697 5.12062 40.9367 6.28387C40.9691 6.44384 40.9854 6.61219 40.9854 6.77399C40.8786 6.76589 40.7879 6.76589 40.6809 6.77399C40.4672 6.78863 40.2565 6.82627 40.0491 6.88849C39.761 6.65166 39.3915 6.52906 39.0126 6.55206C38.4265 6.58318 37.9273 6.94914 37.7071 7.47848C37.0982 7.5305 36.5607 7.85229 36.2205 8.3197ZM37.7882 7.96025C37.8888 7.96025 37.9857 7.96025 38.0764 7.97489C38.1251 7.47011 38.5268 7.07148 39.0417 7.04193C39.4045 7.01893 39.7252 7.19381 39.9227 7.47011C40.1658 7.34751 40.4312 7.28556 40.71 7.27092C43.2137 7.13369 43.0323 9.62045 41.7953 10.7918C41.1961 11.3588 40.626 12.1234 40.0266 12.8422C39.8095 13.1102 39.6022 13.3781 39.3982 13.638C37.9794 13.0106 36.8781 11.7869 36.4311 10.2642C36.4472 10.2562 36.4635 10.2562 36.4765 10.2562C36.3793 10.0651 36.3241 9.85753 36.3111 9.62881C36.2658 8.75567 36.9235 8.01252 37.7882 7.96025Z" fill="#94C350"/>
<path fill-rule="evenodd" clip-rule="evenodd" d="M17.087 1.08682C15.6131 1.6227 18.0264 9.75077 18.6483 11.4565C19.4677 13.7307 20.5465 15.4901 22.2602 16.8445L22.2441 12.1769C22.2441 11.6948 22.4742 11.2651 22.8207 10.9906C22.7171 10.6835 22.6103 10.3633 22.4869 10.0496V10.025L22.4579 10.0331C21.6318 10.1246 20.887 10.1638 20.1969 10.11C20.9256 9.94999 21.5638 9.73405 22.3058 9.53645C22.0791 8.93833 21.8523 8.35693 21.6222 7.7981C20.7961 7.89115 20.0609 7.9288 19.3776 7.86658C20.0902 7.7147 20.7057 7.50061 21.4117 7.31606C21.1817 6.78019 20.9552 6.27542 20.7282 5.78528C19.9702 5.86214 19.2869 5.89299 18.6486 5.8475C19.3029 5.70216 19.8697 5.51081 20.5079 5.34272C20.2423 4.79875 19.9832 4.30208 19.7274 3.8577C19.0148 3.91808 18.3605 3.94919 17.7549 3.89534C18.3607 3.7662 18.8919 3.59786 19.475 3.42978C18.496 1.80724 17.6183 0.887365 17.087 1.08682Z" fill="#EFAC4F"/>
<path fill-rule="evenodd" clip-rule="evenodd" d="M17.0875 1.08682C16.2065 1.4086 16.7217 4.48507 17.4114 7.23947C18.1176 7.7296 18.9598 8.02055 19.8797 8.02055C20.2944 8.02055 20.6991 7.96016 21.0782 7.8522C20.4692 7.89795 19.909 7.91441 19.3777 7.86684C20.0904 7.71497 20.7058 7.50087 21.412 7.31633C21.1819 6.78045 20.9554 6.27567 20.7284 5.78555C19.9704 5.86239 19.2871 5.89324 18.6488 5.84776C19.3031 5.70242 19.8699 5.51107 20.5081 5.34299C20.2425 4.79901 19.9834 4.30234 19.7276 3.85796C19.015 3.91834 18.3607 3.94945 17.7551 3.8956C18.3609 3.76646 18.8922 3.59812 19.4752 3.43004C18.4965 1.80724 17.6188 0.887365 17.0875 1.08682Z" fill="#F2BC71"/>
<path fill-rule="evenodd" clip-rule="evenodd" d="M26.5167 11.1588C27.0414 11.1881 27.4495 11.6244 27.4495 12.1537V12.8122C26.5555 12.9722 25.8657 13.7598 25.8429 14.709C25.8268 15.6123 26.4031 16.3769 27.2163 16.6384L27.4656 17.0973L27.4785 19.1935C25.7359 18.8799 24.1259 18.184 22.7524 17.1888L22.7296 12.1764C22.7296 11.6487 23.1411 11.2043 23.6561 11.1651V10.2094C23.6561 9.85648 23.9282 9.58202 24.278 9.5739L25.8877 9.56578C26.2345 9.56578 26.5097 9.85021 26.5097 10.1948L26.5167 11.1588Z" fill="#F94141"/>
<path fill-rule="evenodd" clip-rule="evenodd" d="M26.5161 11.1588C27.0409 11.1881 27.449 11.6244 27.449 12.1537V12.8122C26.555 12.9722 25.8652 13.7598 25.8424 14.7089C25.8424 14.8934 25.8553 15.0764 25.9007 15.2448C24.5661 14.4948 23.6623 13.0636 23.6623 11.4183C23.6623 10.7763 23.8017 10.1637 24.0411 9.61964C24.1124 9.59665 24.1868 9.58202 24.2775 9.5739L25.8872 9.56578C26.234 9.56578 26.5091 9.85021 26.5091 10.1948L26.5161 11.1588Z" fill="#FB5E5E"/>
<path fill-rule="evenodd" clip-rule="evenodd" d="M26.6619 35.5725C26.6619 37.1785 27.9511 38.4806 29.5448 38.4806C31.1449 38.4806 32.4341 37.1785 32.4341 35.5725C32.4341 33.9649 31.1449 32.6644 29.5448 32.6644C27.9508 32.6644 26.6619 33.9649 26.6619 35.5725ZM18.8003 38.3417C20.394 38.3417 21.6897 37.0332 21.6897 35.419C21.6897 33.8114 20.394 32.5109 18.8003 32.5109C17.2066 32.5109 15.9174 33.8114 15.9174 35.419C15.9174 37.033 17.2066 38.3417 18.8003 38.3417ZM9.02772 15.6436C9.69506 18.7966 10.3333 21.888 11.2433 24.2145C11.6678 25.2862 12.6103 25.4088 14.5375 25.5623C15.0234 25.5542 15.5093 25.5461 15.9788 25.5461C29.6028 25.5003 36.4085 25.4693 36.4085 25.4693C38.5852 17.9309 39.6801 14.1586 39.6801 14.1586H39.664C37.2377 18.0765 32.6834 20.4111 27.8441 19.7461C23.5035 19.148 20.0213 16.271 18.4214 12.4822C17.9192 11.296 17.4206 9.83389 17.2004 8.63307C12.9829 7.59239 9.8798 6.83432 8.07234 6.38994C7.70953 5.50273 7.29803 4.67617 6.85127 3.94895C5.37058 1.54587 2.84401 -0.0306549 0 0.000452142L0.0160662 1.62272C2.2835 1.59161 4.2949 2.87092 5.47734 4.79877C7.1003 7.43894 8.10442 11.5872 9.02772 15.6436Z" fill="#0FA687"/>
<path fill-rule="evenodd" clip-rule="evenodd" d="M9.02813 15.6438C9.69539 18.7968 10.3336 21.8881 11.2437 24.2146C11.6682 25.2864 12.6106 25.409 14.5378 25.5625L14.7581 25.5543C17.2393 24.2915 18.9366 21.697 18.9366 18.7056C18.9366 14.4643 15.5225 11.0284 11.3212 11.0284C10.168 11.0284 9.07323 11.2883 8.09494 11.7553C8.42222 13.0266 8.73325 14.3351 9.02813 15.6438Z" fill="#14B997"/>
<mask id="mask2_15_36" style="mask-type:luminance" maskUnits="userSpaceOnUse" x="27" y="15" width="8" height="5">
<path d="M27.7 16.5068L29.2579 19.3611C30.7285 19.3922 32.1762 19.1324 33.5272 18.6276L34.7031 16.6671C34.2336 16.6067 33.8319 16.3304 33.5953 15.9336C32.9733 17.0119 32.481 17.801 32.154 18.3204C32.1022 18.4054 32.0016 18.443 31.911 18.4054C31.8202 18.3661 31.7684 18.2747 31.7814 18.1832C31.8656 17.5704 31.9951 16.6441 32.1991 15.3893C32.1633 15.3582 32.1245 15.3289 32.0955 15.3059C31.6388 15.703 31.0557 15.9171 30.4401 15.9022C30.4111 15.9022 30.3722 15.9022 30.3333 15.9022C30.4401 16.8662 30.5147 17.6013 30.56 18.1061C30.5761 18.2057 30.5147 18.2906 30.424 18.3202C30.3333 18.3513 30.2361 18.3202 30.1809 18.2287C29.9089 17.7385 29.4973 17.0197 28.9824 16.0394C28.665 16.3465 28.2245 16.5149 27.7676 16.5068C27.7388 16.5068 27.7225 16.5068 27.7 16.5068Z" fill="white"/>
</mask>
<g mask="url(#mask2_15_36)">
<path d="M34.7031 15.3059H27.7V19.3919H34.7031V15.3059Z" fill="url(#paint2_linear_15_36)"/>
</g>
<path fill-rule="evenodd" clip-rule="evenodd" d="M33.7067 15.5212C33.8523 16.0179 34.3157 16.3937 34.8598 16.4084C35.5367 16.4165 36.0972 15.8725 36.1135 15.1848C36.1296 14.5574 35.673 14.0215 35.0672 13.9285V13.8992C35.0801 12.9812 34.3514 12.2082 33.4411 12.1919C33.14 12.1838 32.8645 12.2542 32.6217 12.383C32.7448 12.7197 32.6704 13.3322 32.502 13.5463C32.8194 12.3145 31.7666 11.259 30.5357 11.236C29.3468 11.2049 28.3428 12.1541 28.3136 13.3633C28.1612 13.3011 27.9961 13.2719 27.8277 13.2719C27.0179 13.2556 26.3407 13.8992 26.3247 14.7257C26.3117 15.5361 26.9565 16.2257 27.766 16.2403C28.4367 16.2565 29.013 15.8122 29.2011 15.2078C29.551 15.4592 29.9816 15.6211 30.4449 15.6276C31.1057 15.6438 31.6986 15.3678 32.1066 14.9087C32.4046 15.2909 32.8581 15.5361 33.3665 15.5442C33.4864 15.552 33.5935 15.5359 33.7067 15.5212Z" fill="#3FA248"/>
<path fill-rule="evenodd" clip-rule="evenodd" d="M32.2748 12.169C31.9184 11.6184 31.2577 11.2509 30.5354 11.236C29.3465 11.2049 28.3427 12.1541 28.3134 13.3633C28.161 13.3011 27.9959 13.2719 27.8275 13.2719C27.0177 13.2556 26.3406 13.8992 26.3245 14.7257C26.3245 15.0232 26.4022 15.3074 26.5547 15.5361C27.0081 15.7044 27.494 15.7959 28.0027 15.7959C28.3297 15.7959 28.6407 15.7502 28.9454 15.6898C29.0589 15.5526 29.1496 15.3842 29.2014 15.2078C29.3471 15.3074 29.4963 15.3989 29.6485 15.4592C31.0081 14.9006 32.0156 13.6687 32.2748 12.169Z" fill="#5CB065"/>
<path d="M51.9452 6.61006V15.3546H49.8432V6.61006H51.9452ZM54.8427 6.61006H56.5603L58.5123 12.694L60.4642 6.61006H62.1818L59.2089 15.3546H57.8156L54.8427 6.61006ZM53.7977 6.61006H55.5754L55.9057 13.3126V15.3546H53.7977V6.61006ZM61.4492 6.61006H63.2329V15.3546H61.1188V13.3126L61.4492 6.61006ZM72.1062 10.682V14.2735C71.958 14.4377 71.7298 14.6138 71.4215 14.802C71.1172 14.9862 70.7328 15.1444 70.2683 15.2765C69.8039 15.4086 69.2574 15.4747 68.6287 15.4747C68.0482 15.4747 67.5217 15.3826 67.0492 15.1985C66.5767 15.0103 66.1704 14.736 65.83 14.3756C65.4937 14.0113 65.2335 13.5668 65.0493 13.0423C64.8691 12.5138 64.779 11.9092 64.779 11.2285V10.7421C64.779 10.0614 64.8711 9.45685 65.0553 8.92835C65.2395 8.39977 65.4977 7.95537 65.83 7.59502C66.1663 7.23066 66.5607 6.9544 67.0132 6.76621C67.4697 6.57802 67.9701 6.48393 68.5147 6.48393C69.3195 6.48393 69.9741 6.61206 70.4786 6.86831C70.9831 7.12056 71.3655 7.4709 71.6257 7.91933C71.8859 8.36376 72.0441 8.87827 72.1002 9.4628H70.0762C70.0362 9.17459 69.96 8.93028 69.848 8.73011C69.7398 8.52591 69.5837 8.3718 69.3795 8.26769C69.1753 8.15956 68.9111 8.10554 68.5867 8.10554C68.3345 8.10554 68.1043 8.15956 67.8961 8.26769C67.6919 8.37582 67.5177 8.53998 67.3736 8.76017C67.2294 8.97635 67.1173 9.24864 67.0372 9.57696C66.9612 9.90528 66.9231 10.2896 66.9231 10.7301V11.2285C66.9231 11.665 66.9592 12.0473 67.0312 12.3757C67.1073 12.704 67.2194 12.9783 67.3676 13.1985C67.5197 13.4147 67.7119 13.5789 67.9441 13.6909C68.1803 13.7991 68.4586 13.8531 68.7789 13.8531C69.0031 13.8531 69.1953 13.8351 69.3555 13.7991C69.5156 13.759 69.6478 13.711 69.7519 13.6549C69.86 13.5949 69.942 13.5388 69.9981 13.4867V12.1294H68.5327V10.682H72.1062ZM84.2912 10.682V14.2735C84.1433 14.4377 83.915 14.6138 83.6063 14.802C83.3024 14.9862 82.9181 15.1444 82.4535 15.2765C81.9888 15.4086 81.4429 15.4747 80.8143 15.4747C80.2334 15.4747 79.7069 15.3826 79.2344 15.1985C78.7619 15.0103 78.3556 14.736 78.0152 14.3756C77.6789 14.0113 77.4187 13.5668 77.2345 13.0423C77.0542 12.5138 76.9642 11.9092 76.9642 11.2285V10.7421C76.9642 10.0614 77.0563 9.45685 77.2404 8.92835C77.4246 8.39977 77.6829 7.95537 78.0152 7.59502C78.3515 7.23066 78.7459 6.9544 79.1984 6.76621C79.6548 6.57802 80.1553 6.48393 80.7001 6.48393C81.5048 6.48393 82.1592 6.61206 82.6641 6.86831C83.1682 7.12056 83.5508 7.4709 83.8105 7.91933C84.071 8.36376 84.2293 8.87827 84.2856 9.4628H82.2613C82.2211 9.17459 82.1456 8.93028 82.033 8.73011C81.9253 8.52591 81.7685 8.3718 81.5643 8.26769C81.3601 8.15956 81.0965 8.10554 80.7717 8.10554C80.52 8.10554 80.2895 8.15956 80.0813 8.26769C79.8771 8.37582 79.7029 8.53998 79.5587 8.76017C79.4146 8.97635 79.3025 9.24864 79.2224 9.57696C79.1463 9.90528 79.1083 10.2896 79.1083 10.7301V11.2285C79.1083 11.665 79.1443 12.0473 79.2164 12.3757C79.2925 12.704 79.4046 12.9783 79.5527 13.1985C79.7049 13.4147 79.8971 13.5789 80.1293 13.6909C80.3655 13.7991 80.6438 13.8531 80.9638 13.8531C81.1881 13.8531 81.3802 13.8351 81.541 13.7991C81.701 13.759 81.8328 13.711 81.9374 13.6549C82.0451 13.5949 82.1271 13.5388 82.1834 13.4867V12.1294H80.7178V10.682H84.2912ZM87.8373 10.4659V15.3546H85.8139V8.85624H87.7055L87.8373 10.4659ZM89.7595 8.80817L89.7233 10.6881C89.643 10.68 89.5352 10.67 89.3994 10.658C89.2627 10.646 89.1485 10.64 89.0569 10.64C88.8205 10.64 88.6163 10.668 88.4443 10.7241C88.2755 10.7761 88.1356 10.8562 88.0238 10.9643C87.9153 11.0684 87.8357 11.2006 87.7835 11.3607C87.7352 11.5208 87.7135 11.707 87.7176 11.9193L87.351 11.679C87.351 11.2426 87.3928 10.8462 87.4772 10.4898C87.5648 10.1295 87.6894 9.81918 87.8494 9.55895C88.0094 9.2947 88.2039 9.09251 88.4322 8.95231C88.6606 8.80817 88.9162 8.73614 89.2008 8.73614C89.3005 8.73614 89.3994 8.74216 89.495 8.75414C89.5955 8.76612 89.6831 8.78421 89.7595 8.80817ZM90.3568 12.1715V12.0454C90.3568 11.5689 90.4244 11.1305 90.561 10.7301C90.6969 10.3256 90.8971 9.9753 91.1616 9.67905C91.4252 9.38273 91.7516 9.15257 92.1399 8.98841C92.529 8.82023 92.9768 8.73614 93.4857 8.73614C93.9978 8.73614 94.4488 8.82023 94.8371 8.98841C95.2294 9.15257 95.5574 9.38273 95.8219 9.67905C96.0864 9.9753 96.2866 10.3256 96.4224 10.7301C96.5583 11.1305 96.6266 11.5689 96.6266 12.0454V12.1715C96.6266 12.6439 96.5583 13.0824 96.4224 13.4867C96.2866 13.8872 96.0864 14.2375 95.8219 14.5378C95.5574 14.834 95.231 15.0643 94.8427 15.2284C94.4544 15.3926 94.0058 15.4747 93.4978 15.4747C92.9889 15.4747 92.5387 15.3926 92.1464 15.2284C91.7541 15.0643 91.4252 14.834 91.1616 14.5378C90.8971 14.2375 90.6969 13.8872 90.561 13.4867C90.4244 13.0824 90.3568 12.6439 90.3568 12.1715ZM92.3803 12.0454V12.1715C92.3803 12.4157 92.3988 12.6439 92.435 12.8562C92.4703 13.0684 92.5306 13.2546 92.6151 13.4147C92.6987 13.5708 92.8128 13.693 92.9567 13.7811C93.1014 13.8692 93.2815 13.9132 93.4978 13.9132C93.71 13.9132 93.8861 13.8692 94.0259 13.7811C94.1706 13.693 94.284 13.5708 94.3684 13.4147C94.4528 13.2546 94.5123 13.0684 94.5485 12.8562C94.5847 12.6439 94.6023 12.4157 94.6023 12.1715V12.0454C94.6023 11.8091 94.5847 11.5869 94.5485 11.3787C94.5123 11.1665 94.4528 10.9803 94.3684 10.8201C94.284 10.656 94.1706 10.5279 94.0259 10.4358C93.882 10.3437 93.702 10.2977 93.4857 10.2977C93.2735 10.2977 93.095 10.3437 92.9511 10.4358C92.8112 10.5279 92.6987 10.656 92.6151 10.8201C92.5306 10.9803 92.4703 11.1665 92.435 11.3787C92.3988 11.5869 92.3803 11.8091 92.3803 12.0454ZM100.641 13.9132C100.83 13.9132 100.99 13.8791 101.121 13.8111C101.258 13.739 101.36 13.6389 101.428 13.5108C101.5 13.3786 101.534 13.2205 101.53 13.0363H103.434C103.438 13.5248 103.318 13.9532 103.073 14.3215C102.834 14.686 102.505 14.9702 102.088 15.1744C101.676 15.3746 101.21 15.4747 100.69 15.4747C100.181 15.4747 99.7362 15.3926 99.3559 15.2284C98.9757 15.0603 98.6573 14.8281 98.4009 14.5318C98.1484 14.2315 97.9587 13.8812 97.8301 13.4807C97.7063 13.0804 97.6444 12.6459 97.6444 12.1775V12.0394C97.6444 11.5709 97.7063 11.1365 97.8301 10.7361C97.9587 10.3317 98.1484 9.98133 98.4009 9.68508C98.6573 9.38474 98.9733 9.15257 99.3503 8.98841C99.7306 8.82023 100.173 8.73614 100.678 8.73614C101.218 8.73614 101.695 8.83823 102.107 9.04243C102.523 9.24663 102.85 9.54295 103.085 9.93133C103.322 10.3197 103.438 10.7902 103.434 11.3427H101.53C101.534 11.1465 101.504 10.9703 101.44 10.8142C101.376 10.658 101.276 10.5339 101.14 10.4418C101.007 10.3457 100.838 10.2977 100.629 10.2977C100.421 10.2977 100.253 10.3437 100.124 10.4358C99.9967 10.5279 99.8986 10.656 99.8303 10.8201C99.7667 10.9803 99.7225 11.1645 99.6984 11.3727C99.6783 11.5809 99.6687 11.8031 99.6687 12.0394V12.1775C99.6687 12.4177 99.6783 12.6439 99.6984 12.8562C99.7225 13.0644 99.7683 13.2485 99.8367 13.4087C99.9042 13.5648 100.002 13.6889 100.131 13.7811C100.259 13.8692 100.429 13.9132 100.641 13.9132ZM107.815 15.4747C107.287 15.4747 106.814 15.3926 106.398 15.2284C105.981 15.0603 105.629 14.8301 105.34 14.5378C105.057 14.2455 104.838 13.9092 104.686 13.5288C104.538 13.1485 104.463 12.746 104.463 12.3216V12.0934C104.463 11.6169 104.53 11.1765 104.662 10.7721C104.794 10.3638 104.99 10.0074 105.25 9.70309C105.511 9.39881 105.837 9.16254 106.229 8.99435C106.622 8.82224 107.078 8.73614 107.599 8.73614C108.059 8.73614 108.472 8.81018 108.836 8.95834C109.2 9.1065 109.509 9.31874 109.761 9.59496C110.017 9.87127 110.211 10.2055 110.343 10.5979C110.48 10.9903 110.547 11.4307 110.547 11.9193V12.7421H105.238V11.4748H108.571V11.3187C108.575 11.1025 108.538 10.9182 108.457 10.7661C108.382 10.6139 108.269 10.4978 108.121 10.4178C107.973 10.3377 107.793 10.2977 107.581 10.2977C107.361 10.2977 107.178 10.3457 107.034 10.4418C106.894 10.5379 106.784 10.67 106.704 10.8381C106.627 11.0023 106.574 11.1925 106.541 11.4088C106.509 11.6249 106.494 11.8532 106.494 12.0934V12.3216C106.494 12.5618 106.525 12.7801 106.59 12.9763C106.658 13.1725 106.754 13.3406 106.878 13.4807C107.006 13.6169 107.158 13.723 107.334 13.7991C107.515 13.8751 107.719 13.9132 107.947 13.9132C108.223 13.9132 108.496 13.8611 108.763 13.757C109.032 13.6529 109.263 13.4807 109.455 13.2405L110.374 14.3336C110.241 14.5218 110.053 14.704 109.809 14.8801C109.569 15.0563 109.28 15.2005 108.944 15.3125C108.607 15.4207 108.231 15.4747 107.815 15.4747ZM113.782 10.4659V15.3546H111.757V8.85624H113.649L113.782 10.4659ZM115.703 8.80817L115.668 10.6881C115.587 10.68 115.479 10.67 115.343 10.658C115.207 10.646 115.093 10.64 115 10.64C114.764 10.64 114.56 10.668 114.388 10.7241C114.22 10.7761 114.08 10.8562 113.967 10.9643C113.86 11.0684 113.779 11.2006 113.728 11.3607C113.679 11.5208 113.657 11.707 113.661 11.9193L113.295 11.679C113.295 11.2426 113.337 10.8462 113.421 10.4898C113.509 10.1295 113.633 9.81918 113.794 9.55895C113.954 9.2947 114.147 9.09251 114.376 8.95231C114.604 8.80817 114.86 8.73614 115.145 8.73614C115.245 8.73614 115.343 8.74216 115.439 8.75414C115.539 8.76612 115.627 8.78421 115.703 8.80817ZM118.871 14.5918L120.553 8.85624H122.727L120.114 16.3215C120.058 16.4857 119.984 16.6618 119.892 16.85C119.8 17.0423 119.673 17.2244 119.513 17.3965C119.354 17.5687 119.147 17.7089 118.895 17.817C118.647 17.9251 118.338 17.9791 117.97 17.9791C117.774 17.9791 117.63 17.9692 117.537 17.9492C117.45 17.9331 117.313 17.9031 117.129 17.859V16.4117C117.181 16.4117 117.226 16.4117 117.262 16.4117C117.301 16.4117 117.345 16.4117 117.394 16.4117C117.61 16.4117 117.782 16.3896 117.91 16.3456C118.042 16.3015 118.142 16.2374 118.21 16.1534C118.283 16.0693 118.338 15.9672 118.378 15.8471L118.871 14.5918ZM118.444 8.85624L119.724 13.4027L119.946 15.5468H118.589L116.276 8.85624H118.444Z" fill="white"/>
<path d="M53.4227 29.4833H51.477L51.4896 28.2383H53.4227C53.9858 28.2383 54.4571 28.1153 54.8366 27.8692C55.2203 27.6231 55.5081 27.2707 55.7 26.8119C55.896 26.3531 55.994 25.8068 55.994 25.1728V24.6786C55.994 24.1865 55.9377 23.7506 55.8251 23.371C55.7166 22.9915 55.554 22.6724 55.3371 22.4139C55.1244 22.1553 54.8616 21.9593 54.5488 21.8258C54.2402 21.6924 53.8836 21.6256 53.479 21.6256H51.4395V20.3744H53.479C54.0838 20.3744 54.6364 20.4766 55.1369 20.681C55.6374 20.8811 56.069 21.171 56.4319 21.5506C56.7989 21.9301 57.0805 22.3847 57.2765 22.9143C57.4725 23.444 57.5705 24.0363 57.5705 24.6911V25.1728C57.5705 25.8276 57.4725 26.4198 57.2765 26.9495C57.0805 27.4792 56.7989 27.9339 56.4319 28.3134C56.0649 28.6887 55.627 28.9786 55.1182 29.183C54.6135 29.3832 54.0483 29.4833 53.4227 29.4833ZM52.3466 20.3744V29.4833H50.7764V20.3744H52.3466ZM65.1842 29.6084C64.6837 29.6084 64.2312 29.5271 63.8266 29.3644C63.4262 29.1975 63.0842 28.9661 62.8006 28.67C62.5212 28.3738 62.3064 28.0256 62.1563 27.6252C62.0061 27.2248 61.931 26.7932 61.931 26.3302V26.0799C61.931 25.5502 62.0082 25.0706 62.1625 24.6411C62.3168 24.2115 62.5316 23.8445 62.8069 23.5399C63.0821 23.2313 63.4075 22.9957 63.7828 22.8331C64.1582 22.6703 64.5648 22.5891 65.0028 22.5891C65.4866 22.5891 65.9099 22.6703 66.2727 22.8331C66.6356 22.9957 66.9359 23.225 67.1736 23.5212C67.4155 23.8131 67.5949 24.1614 67.7117 24.566C67.8326 24.9705 67.8931 25.4168 67.8931 25.9048V26.5492H62.663V25.4669H66.4041V25.348C66.3958 25.0769 66.3416 24.8224 66.2415 24.5847C66.1456 24.347 65.9975 24.1552 65.7973 24.0092C65.5971 23.8632 65.3301 23.7902 64.9965 23.7902C64.7463 23.7902 64.5232 23.8445 64.3271 23.9528C64.1353 24.0571 63.9746 24.2094 63.8454 24.4095C63.7161 24.6098 63.616 24.8517 63.5451 25.1352C63.4784 25.4147 63.445 25.7296 63.445 26.0799V26.3302C63.445 26.6263 63.4847 26.9016 63.5638 27.156C63.6473 27.4062 63.7682 27.6252 63.9267 27.8129C64.0852 28.0006 64.2771 28.1487 64.5023 28.257C64.7275 28.3613 64.984 28.4135 65.2718 28.4135C65.6347 28.4135 65.9578 28.3405 66.2415 28.1945C66.5251 28.0485 66.7712 27.842 66.9797 27.5751L67.7742 28.3447C67.6282 28.5574 67.4385 28.7617 67.2049 28.9577C66.9713 29.1496 66.6856 29.306 66.3478 29.427C66.0142 29.5479 65.6263 29.6084 65.1842 29.6084ZM73.8864 19.8739V29.4833H72.3725V19.8739H73.8864ZM80.3553 22.7142V29.4833H78.8413V22.7142H80.3553ZM78.7412 20.9374C78.7412 20.708 78.8163 20.5182 78.9664 20.3682C79.1207 20.2138 79.3334 20.1366 79.6045 20.1366C79.8715 20.1366 80.0821 20.2138 80.2364 20.3682C80.3907 20.5182 80.4677 20.708 80.4677 20.9374C80.4677 21.1627 80.3907 21.3503 80.2364 21.5005C80.0821 21.6506 79.8715 21.7257 79.6045 21.7257C79.3334 21.7257 79.1207 21.6506 78.9664 21.5005C78.8163 21.3503 78.7412 21.1627 78.7412 20.9374ZM87.412 28.2884L89.0697 22.7142H90.6341L88.2819 29.4833H87.3059L87.412 28.2884ZM86.1418 22.7142L87.8317 28.3134L87.9129 29.4833H86.9369L84.5718 22.7142H86.1418ZM97.666 29.6084C97.1652 29.6084 96.7126 29.5271 96.3082 29.3644C95.9079 29.1975 95.5662 28.9661 95.2824 28.67C95.0027 28.3738 94.788 28.0256 94.6377 27.6252C94.4881 27.2248 94.4126 26.7932 94.4126 26.3302V26.0799C94.4126 25.5502 94.4897 25.0706 94.6441 24.6411C94.7985 24.2115 95.0131 23.8445 95.2888 23.5399C95.5638 23.2313 95.8894 22.9957 96.2648 22.8331C96.6402 22.6703 97.0462 22.5891 97.4844 22.5891C97.9683 22.5891 98.392 22.6703 98.7546 22.8331C99.1171 22.9957 99.4178 23.225 99.6549 23.5212C99.8969 23.8131 100.076 24.1614 100.194 24.566C100.314 24.9705 100.374 25.4168 100.374 25.9048V26.5492H95.1449V25.4669H98.8856V25.348C98.8776 25.0769 98.8229 24.8224 98.7232 24.5847C98.6275 24.347 98.4788 24.1552 98.2786 24.0092C98.0785 23.8632 97.8116 23.7902 97.4779 23.7902C97.2279 23.7902 97.0052 23.8445 96.8091 23.9528C96.6169 24.0571 96.4561 24.2094 96.3267 24.4095C96.1981 24.6098 96.0976 24.8517 96.0268 25.1352C95.9601 25.4147 95.9264 25.7296 95.9264 26.0799V26.3302C95.9264 26.6263 95.9666 26.9016 96.0453 27.156C96.1289 27.4062 96.2495 27.6252 96.4087 27.8129C96.5671 28.0006 96.7584 28.1487 96.9843 28.257C97.2094 28.3613 97.4659 28.4135 97.7537 28.4135C98.1162 28.4135 98.4394 28.3405 98.7232 28.1945C99.007 28.0485 99.253 27.842 99.4612 27.5751L100.256 28.3447C100.11 28.5574 99.9202 28.7617 99.6863 28.9577C99.4532 29.1496 99.167 29.306 98.8293 29.427C98.4957 29.5479 98.1082 29.6084 97.666 29.6084ZM106.268 24.0029V29.4833H104.761V22.7142H106.199L106.268 24.0029ZM108.339 22.6703L108.326 24.0717C108.234 24.0551 108.135 24.0426 108.026 24.0342C107.922 24.0258 107.817 24.0217 107.713 24.0217C107.455 24.0217 107.227 24.0592 107.031 24.1343C106.836 24.2052 106.671 24.3095 106.537 24.4471C106.408 24.5805 106.307 24.7433 106.237 24.9351C106.166 25.127 106.124 25.3417 106.111 25.5795L105.767 25.6045C105.767 25.1791 105.809 24.7849 105.893 24.4221C105.976 24.0592 106.102 23.7402 106.268 23.4649C106.439 23.1896 106.651 22.9749 106.906 22.8205C107.164 22.6662 107.463 22.5891 107.801 22.5891C107.893 22.5891 107.991 22.5973 108.095 22.6141C108.203 22.6308 108.284 22.6495 108.339 22.6703ZM114.564 28.745L116.403 22.7142H118.017L115.302 30.5155C115.239 30.6824 115.158 30.8637 115.058 31.0598C114.958 31.2558 114.827 31.4414 114.663 31.6166C114.505 31.796 114.307 31.9398 114.069 32.0482C113.831 32.1609 113.543 32.2172 113.206 32.2172C113.072 32.2172 112.943 32.2047 112.818 32.1797C112.697 32.1588 112.583 32.1359 112.474 32.1108L112.468 30.9597C112.51 30.9639 112.559 30.968 112.618 30.9722C112.681 30.9764 112.731 30.9785 112.769 30.9785C113.019 30.9785 113.227 30.9472 113.394 30.8847C113.56 30.8262 113.696 30.7303 113.801 30.5968C113.908 30.4634 114.001 30.284 114.076 30.0589L114.564 28.745ZM113.525 22.7142L115.133 27.7816L115.402 29.3706L114.357 29.6397L111.899 22.7142H113.525Z" fill="white"/>
<defs>
<linearGradient id="paint0_linear_15_36" x1="27.2755" y1="15.0055" x2="31.686" y2="6.26095" gradientUnits="userSpaceOnUse">
<stop stop-color="#FF2254"/>
<stop offset="0.25" stop-color="#FF3F47"/>
<stop offset="0.46" stop-color="#F25F41"/>
<stop offset="0.68" stop-color="#FF7D2C"/>
<stop offset="1" stop-color="#F2C822"/>
</linearGradient>
<linearGradient id="paint1_linear_15_36" x1="28.5956" y1="13.8752" x2="35.1036" y2="6.56868" gradientUnits="userSpaceOnUse">
<stop stop-color="#FF2254"/>
<stop offset="0.25" stop-color="#FF3F47"/>
<stop offset="0.46" stop-color="#F25F41"/>
<stop offset="0.68" stop-color="#FF7D2C"/>
<stop offset="1" stop-color="#F2C822"/>
</linearGradient>
<linearGradient id="paint2_linear_15_36" x1="33.0233" y1="20.4898" x2="28.6947" y2="13.1562" gradientUnits="userSpaceOnUse">
<stop stop-color="#9ED332"/>
<stop offset="0.4" stop-color="#99D431"/>
<stop offset="1" stop-color="#FAEA29"/>
</linearGradient>
</defs>
</svg>
